<svg width="256" height="211" viewBox="0 0 256 211" fill="none" xmlns="http://www.w3.org/2000/svg">
<path d="M216.803 20.7954C193.835 7.95557 162.942 0.523194 130.473 0.0265602C98.0053 -0.470073 66.4307 6.00678 42.2422 18.1253C18.0537 30.2439 3.08976 47.083 0.427372 65.1802C-2.23501 83.2774 7.6065 101.257 27.9283 115.422C48.2501 129.587 77.5075 138.861 109.684 141.337C141.861 143.813 174.512 139.302 200.923 128.733C227.334 118.163 245.498 102.338 251.679 84.5119C257.86 66.6855 251.589 48.2125 234.156 32.8915L127 71L216.803 20.7954Z" fill="#13071D"/>
<rect y="71" width="254" height="127" fill="#13071D"/>
<path d="M64.795 168.5C67.6317 168.5 69.625 167.695 70.775 166.085C71.925 164.475 72.5 162.673 72.5 160.68V108.01C72.5 106.093 71.925 104.33 70.775 102.72C69.625 101.11 67.6317 100.305 64.795 100.305H37.885L37.77 175.285C37.77 176.972 37.1183 178.313 35.815 179.31C34.5117 180.307 32.9017 180.805 30.985 180.805C26.4617 180.805 24.2 178.965 24.2 175.285V95.59C24.2 92.83 24.89 90.99 26.27 90.07C27.7267 89.15 29.4517 88.69 31.445 88.69H67.67C69.6633 88.69 71.7333 89.1117 73.88 89.955C76.0267 90.7983 78.0967 91.8717 80.09 93.175H79.975C81.9683 94.6317 83.5017 96.5483 84.575 98.925C85.6483 101.225 86.185 103.908 86.185 106.975V161.6C86.185 167.81 84.115 172.448 79.975 175.515C77.9817 176.972 75.9117 178.122 73.765 178.965C71.695 179.732 69.6633 180.115 67.67 180.115H48.35C47.0467 180.115 46.0117 179.578 45.245 178.505C44.555 177.432 44.21 176.013 44.21 174.25C44.21 170.417 45.8583 168.5 49.155 168.5H64.795ZM110.959 180.115C108.123 180.115 106.206 179.387 105.209 177.93C104.213 176.473 103.714 174.863 103.714 173.1V95.59C103.714 93.8267 104.213 92.255 105.209 90.875C106.206 89.4183 108.123 88.69 110.959 88.69H150.979C153.816 88.69 155.311 90.6067 155.464 94.44C155.618 98.35 154.123 100.305 150.979 100.305H117.284V168.5H153.049C155.886 168.5 157.343 170.378 157.419 174.135C157.573 178.122 156.116 180.115 153.049 180.115H110.959ZM146.724 132.505C146.724 135.188 145.766 137.45 143.849 139.29C142.009 141.13 139.748 142.05 137.064 142.05C134.458 142.05 132.234 141.13 130.394 139.29C128.554 137.45 127.634 135.188 127.634 132.505C127.634 129.822 128.554 127.56 130.394 125.72C132.234 123.88 134.458 122.96 137.064 122.96C139.748 122.96 142.009 123.88 143.849 125.72C145.766 127.56 146.724 129.822 146.724 132.505ZM231.844 161.6C231.844 167.81 229.774 172.448 225.634 175.515C223.641 176.972 221.571 178.122 219.424 178.965C217.354 179.732 215.323 180.115 213.329 180.115H188.259C186.266 180.115 184.196 179.732 182.049 178.965C179.979 178.122 177.948 176.972 175.954 175.515C173.961 173.982 172.428 172.103 171.354 169.88C170.281 167.58 169.744 164.82 169.744 161.6V93.635C169.744 89.955 172.006 88.115 176.529 88.115C181.129 88.115 183.429 89.955 183.429 93.635V160.68C183.429 162.673 184.004 164.475 185.154 166.085C186.304 167.695 188.298 168.5 191.134 168.5H210.454C213.291 168.5 215.284 167.695 216.434 166.085C217.584 164.475 218.159 162.673 218.159 160.68V93.635C218.159 89.955 220.421 88.115 224.944 88.115C229.544 88.115 231.844 89.955 231.844 93.635V161.6Z" fill="#D0B9DB"/>
</svg>
